<svg width="35" height="35" viewBox="0 0 35 35" fill="none" xmlns="http://www.w3.org/2000/svg">
<path d="M27.3439 10.3906H17.5C17.1225 10.3906 16.8164 10.6967 16.8164 11.0742C16.8164 11.4518 17.1225 11.7578 17.5 11.7578H27.3439C27.7214 11.7578 28.0275 11.4518 28.0275 11.0742C28.0275 10.6967 27.7214 10.3906 27.3439 10.3906Z" fill="black"/>
<path d="M24.9519 13.8722C24.8247 13.745 24.6484 13.6719 24.4686 13.6719C24.2888 13.6719 24.1124 13.745 23.9853 13.8722C23.8581 13.9993 23.785 14.1757 23.785 14.3555C23.785 14.5353 23.8581 14.7116 23.9853 14.8388C24.1124 14.9659 24.2888 15.0391 24.4686 15.0391C24.6484 15.0391 24.8247 14.9659 24.9519 14.8388C25.079 14.7116 25.1522 14.5353 25.1522 14.3555C25.1522 14.1757 25.079 13.9993 24.9519 13.8722Z" fill="black"/>
<path d="M17.9826 3.13981C17.8555 3.01266 17.6791 2.93951 17.4993 2.93951C17.3196 2.93951 17.1432 3.01266 17.016 3.13981C16.8889 3.26695 16.8158 3.44332 16.8158 3.62311C16.8158 3.80289 16.8889 3.97926 17.016 4.10641C17.1432 4.23355 17.3196 4.3067 17.4993 4.3067C17.6791 4.3067 17.8555 4.23355 17.9826 4.10641C18.1098 3.97926 18.1829 3.80289 18.1829 3.62311C18.1829 3.44332 18.1098 3.26695 17.9826 3.13981Z" fill="black"/>
<path d="M21.5932 13.6718H17.5C17.1225 13.6718 16.8164 13.9779 16.8164 14.3554C16.8164 14.733 17.1225 15.039 17.5 15.039H21.5932C21.9707 15.039 22.2768 14.733 22.2768 14.3554C22.2768 13.9779 21.9707 13.6718 21.5932 13.6718Z" fill="black"/>
<path d="M27.3439 17.7734H17.5C17.1225 17.7734 16.8164 18.0795 16.8164 18.457C16.8164 18.8346 17.1225 19.1406 17.5 19.1406H27.3439C27.7214 19.1406 28.0275 18.8346 28.0275 18.457C28.0275 18.0795 27.7214 17.7734 27.3439 17.7734Z" fill="black"/>
<path d="M24.9519 21.255C24.8247 21.1279 24.6484 21.0547 24.4686 21.0547C24.2888 21.0547 24.1124 21.1279 23.9853 21.255C23.8581 21.3822 23.785 21.5585 23.785 21.7383C23.785 21.9181 23.8581 22.0945 23.9853 22.2216C24.1124 22.3488 24.2888 22.4219 24.4686 22.4219C24.6484 22.4219 24.8247 22.3488 24.9519 22.2216C25.079 22.0945 25.1522 21.9181 25.1522 21.7383C25.1522 21.5585 25.079 21.3822 24.9519 21.255Z" fill="black"/>
<path d="M21.5932 21.0547H17.5C17.1225 21.0547 16.8164 21.3607 16.8164 21.7383C16.8164 22.1158 17.1225 22.4218 17.5 22.4218H21.5932C21.9707 22.4218 22.2768 22.1158 22.2768 21.7383C22.2768 21.3607 21.9707 21.0547 21.5932 21.0547Z" fill="black"/>
<path d="M27.3439 25.1562H17.5C17.1225 25.1562 16.8164 25.4622 16.8164 25.8398C16.8164 26.2173 17.1225 26.5234 17.5 26.5234H27.3439C27.7214 26.5234 28.0275 26.2173 28.0275 25.8398C28.0275 25.4622 27.7214 25.1562 27.3439 25.1562Z" fill="black"/>
<path d="M24.9519 28.6378C24.8247 28.5106 24.6484 28.4375 24.4686 28.4375C24.2888 28.4375 24.1124 28.5106 23.9853 28.6378C23.8581 28.7649 23.785 28.9413 23.785 29.1211C23.785 29.3009 23.8581 29.4772 23.9853 29.6044C24.1124 29.7315 24.2888 29.8047 24.4686 29.8047C24.6484 29.8047 24.8247 29.7315 24.9519 29.6044C25.079 29.4772 25.1522 29.3009 25.1522 29.1211C25.1522 28.9413 25.079 28.7649 24.9519 28.6378Z" fill="black"/>
<path d="M21.5932 28.4374H17.5C17.1225 28.4374 16.8164 28.7435 16.8164 29.121C16.8164 29.4986 17.1225 29.8046 17.5 29.8046H21.5932C21.9707 29.8046 22.2768 29.4986 22.2768 29.121C22.2768 28.7435 21.9707 28.4374 21.5932 28.4374Z" fill="black"/>
<path d="M28.6591 2.66608H23.4379C22.6832 1.94687 21.6629 1.5039 20.5405 1.5039H19.9417C19.4839 0.597597 18.5433 0 17.5 0C16.4566 0 15.5161 0.597597 15.0582 1.5039H14.458C13.3356 1.5039 12.3154 1.94687 11.5606 2.66608H6.34093C4.5031 2.66608 3.00787 4.1613 3.00787 5.99914V31.6669C3.00787 33.5048 4.5031 35 6.34093 35H28.6591C30.4969 35 31.9921 33.5048 31.9921 31.6669V5.99914C31.9922 4.1613 30.497 2.66608 28.6591 2.66608ZM14.458 2.87109H15.5235C15.831 2.87109 16.1006 2.66581 16.1824 2.36947C16.3454 1.77932 16.8873 1.36718 17.5 1.36718C18.1128 1.36718 18.6546 1.77932 18.8176 2.36947C18.8994 2.66581 19.1691 2.87109 19.4765 2.87109H20.5405C22.0243 2.87109 23.2456 4.01611 23.3674 5.46881H11.6311C11.753 4.01611 12.9744 2.87109 14.458 2.87109ZM30.625 31.667C30.625 32.751 29.7431 33.6329 28.6591 33.6329H6.34093C5.25696 33.6329 4.37506 32.751 4.37506 31.667V5.99914C4.37506 4.91517 5.25696 4.03326 6.34093 4.03326H10.6029C10.379 4.54678 10.254 5.11293 10.254 5.70807V6.1524C10.254 6.52995 10.56 6.83599 10.9375 6.83599H24.0611C24.4386 6.83599 24.7447 6.52995 24.7447 6.1524V5.70807C24.7447 5.113 24.6196 4.54678 24.3957 4.03326H28.6591C29.7431 4.03326 30.625 4.91517 30.625 5.99914V31.667Z" fill="black"/>
<path d="M13.153 10.2263C12.8861 9.95933 12.4532 9.95934 12.1863 10.2262L9.26308 13.1495L8.36258 12.2489C8.09564 11.982 7.66279 11.982 7.39578 12.2489C7.12884 12.5158 7.12884 12.9487 7.39578 13.2157L8.77971 14.5996C8.91322 14.7331 9.08815 14.7999 9.26308 14.7999C9.43801 14.7999 9.61301 14.7331 9.74645 14.5996L13.153 11.1931C13.4199 10.9261 13.4199 10.4933 13.153 10.2263Z" fill="black"/>
<path d="M11.4844 25.1562H8.20317C7.82562 25.1562 7.51958 25.4622 7.51958 25.8398V29.121C7.51958 29.4986 7.82562 29.8046 8.20317 29.8046H11.4844C11.862 29.8046 12.168 29.4986 12.168 29.121V25.8398C12.168 25.4622 11.862 25.1562 11.4844 25.1562ZM10.8008 28.4374H8.88676V26.5234H10.8008V28.4374Z" fill="black"/>
<path d="M11.4844 17.7734H8.20317C7.82562 17.7734 7.51958 18.0795 7.51958 18.457V21.7382C7.51958 22.1158 7.82562 22.4218 8.20317 22.4218H11.4844C11.862 22.4218 12.168 22.1158 12.168 21.7382V18.457C12.168 18.0795 11.862 17.7734 11.4844 17.7734ZM10.8008 21.0547H8.88676V19.1406H10.8008V21.0547Z" fill="black"/>
</svg>
