<svg width="35" height="35" viewBox="0 0 35 35" fill="none" xmlns="http://www.w3.org/2000/svg">
<path d="M17.5 35C7.85021 35 0 27.1498 0 17.5C0 7.85021 7.85021 0 17.5 0C27.1498 0 35 7.85021 35 17.5C35 27.1498 27.1498 35 17.5 35ZM17.5 1.45833C8.65521 1.45833 1.45833 8.65521 1.45833 17.5C1.45833 26.3448 8.65521 33.5417 17.5 33.5417C26.3448 33.5417 33.5417 26.3448 33.5417 17.5C33.5417 8.65521 26.3448 1.45833 17.5 1.45833Z" fill="black"/>
<path d="M17.5 11.6667C16.294 11.6667 15.3125 10.6852 15.3125 9.47916C15.3125 8.27312 16.294 7.29166 17.5 7.29166C18.706 7.29166 19.6875 8.27312 19.6875 9.47916C19.6875 10.6852 18.706 11.6667 17.5 11.6667ZM17.5 8.74999C17.099 8.74999 16.7708 9.07666 16.7708 9.47916C16.7708 9.88166 17.099 10.2083 17.5 10.2083C17.901 10.2083 18.2292 9.88166 18.2292 9.47916C18.2292 9.07666 17.901 8.74999 17.5 8.74999Z" fill="black"/>
<path d="M17.5 26.25C17.0975 26.25 16.7708 25.9233 16.7708 25.5208V16.0417H15.3125C14.91 16.0417 14.5833 15.715 14.5833 15.3125C14.5833 14.91 14.91 14.5833 15.3125 14.5833H17.5C17.9025 14.5833 18.2292 14.91 18.2292 15.3125V25.5208C18.2292 25.9233 17.9025 26.25 17.5 26.25Z" fill="black"/>
<path d="M20.4167 26.25H14.5833C14.1808 26.25 13.8542 25.9233 13.8542 25.5208C13.8542 25.1183 14.1808 24.7917 14.5833 24.7917H20.4167C20.8192 24.7917 21.1458 25.1183 21.1458 25.5208C21.1458 25.9233 20.8192 26.25 20.4167 26.25Z" fill="black"/>
</svg>
