<svg width="35" height="35" viewBox="0 0 35 35" fill="none" xmlns="http://www.w3.org/2000/svg">
<path d="M22.7255 8.70007C22.4067 8.3815 21.9829 8.2058 21.5321 8.2058C21.0814 8.2058 20.6576 8.3815 20.3391 8.70007C20.0202 9.0189 19.8445 9.44267 19.8445 9.89342C19.8445 10.3442 20.0202 10.7679 20.3388 11.0865L23.2136 13.9613C23.5322 14.2799 23.9562 14.4556 24.407 14.4556C24.8577 14.4556 25.2812 14.2799 25.6001 13.9613L31.7422 7.81914C32.0611 7.50031 32.2365 7.07653 32.2365 6.62605C32.2365 6.17531 32.0611 5.75153 31.7422 5.4327C31.4237 5.11387 30.9996 4.93843 30.5489 4.93843C30.0982 4.93843 29.6744 5.11387 29.3558 5.4327L28.6786 6.10989C28.1769 5.72697 27.6263 5.41988 27.0428 5.19772V4.43001C27.0428 3.49941 26.2858 2.74239 25.3555 2.74239H20.064V2.15652C20.064 0.967445 19.0966 0 17.9075 0H12.0064C10.8173 0 9.84989 0.967445 9.84989 2.15652V4.59316C9.84989 5.25379 10.3874 5.79132 11.048 5.79132H18.8659C19.5265 5.79132 20.064 5.25379 20.064 4.59316V3.76938H25.3552C25.7194 3.76938 26.0158 4.06578 26.0158 4.43001V4.90292C25.5931 4.81747 25.1605 4.77207 24.7229 4.77207C21.1263 4.77207 18.2001 7.69817 18.2001 11.2948C18.2001 14.8914 21.1263 17.8175 24.7229 17.8175C25.1616 17.8175 25.5942 17.7734 26.0158 17.6888V33.3126C26.0158 33.6769 25.7194 33.973 25.3552 33.973H4.55845C4.19422 33.973 3.89809 33.6769 3.89809 33.3126V4.43001C3.89809 4.06578 4.19422 3.76938 4.55845 3.76938H7.97188C8.25546 3.76938 8.48537 3.53947 8.48537 3.25588C8.48537 2.9723 8.25546 2.74239 7.97188 2.74239H4.55845C3.62812 2.74239 2.87109 3.49941 2.87109 4.43001V33.3126C2.87109 34.243 3.62812 35 4.55845 35H25.3555C26.2858 35 27.0428 34.243 27.0428 33.3126V17.3919C27.8605 17.0808 28.6145 16.606 29.2597 15.9814C30.4795 14.8003 31.1836 13.2169 31.2418 11.5226C31.2514 11.2392 31.0298 11.0016 30.7462 10.9917C30.4648 10.9824 30.2253 11.2037 30.2154 11.4873C30.1334 13.8721 28.5651 15.8412 26.4116 16.5283C26.3819 16.5352 26.3531 16.5443 26.3258 16.5563C25.819 16.7088 25.281 16.7905 24.7229 16.7905C21.6926 16.7905 19.2271 14.325 19.2271 11.2948C19.2271 8.26454 21.6926 5.79906 24.7229 5.79906C25.8868 5.79906 27.0118 6.16703 27.9451 6.84341L24.407 10.3818L22.7255 8.70007ZM19.037 4.59316C19.037 4.68769 18.9604 4.76433 18.8659 4.76433H11.048C10.9535 4.76433 10.8769 4.68769 10.8769 4.59316V2.15652C10.8769 1.53355 11.3834 1.02699 12.0064 1.02699H17.9075C18.5302 1.02699 19.037 1.53355 19.037 2.15652V4.59316ZM30.0821 6.15902C30.2068 6.03405 30.3727 5.96542 30.5489 5.96542C30.7254 5.96542 30.8912 6.03432 31.0162 6.15902C31.2736 6.41644 31.2736 6.83567 31.0162 7.09309L24.8737 13.2353C24.749 13.36 24.5832 13.4289 24.4067 13.4289C24.2302 13.4289 24.0644 13.36 23.9397 13.2353L21.0648 10.3605C20.9401 10.2357 20.8715 10.0699 20.8715 9.89342C20.8715 9.71691 20.9401 9.55109 21.0651 9.42638C21.1898 9.30168 21.3556 9.23279 21.5321 9.23279C21.7084 9.23279 21.8745 9.30168 21.9992 9.42638L24.0438 11.471C24.2443 11.6716 24.5693 11.6716 24.7699 11.471L30.0821 6.15902Z" fill="black"/>
<path d="M16.8463 12.8889H10.5896C10.306 12.8889 10.0763 13.1189 10.0763 13.4024C10.0763 13.6858 10.306 13.9157 10.5896 13.9157H16.8463C17.1299 13.9157 17.3598 13.6858 17.3598 13.4024C17.3598 13.1189 17.1299 12.8889 16.8463 12.8889Z" fill="black"/>
<path d="M9.60957 7.58868H6.15448C5.8709 7.58868 5.64098 7.8186 5.64098 8.10218C5.64098 8.38577 5.8709 8.61568 6.15448 8.61568H9.60957C9.89315 8.61568 10.1231 8.38577 10.1231 8.10218C10.1231 7.8186 9.89315 7.58868 9.60957 7.58868Z" fill="black"/>
<path d="M10.5896 16.2978H16.8463C17.1299 16.2978 17.3598 16.0679 17.3598 15.7843C17.3598 15.501 17.1299 15.2711 16.8463 15.2711H10.5896C10.306 15.2711 10.0763 15.501 10.0763 15.7843C10.0763 16.0679 10.306 16.2978 10.5896 16.2978Z" fill="black"/>
<path d="M19.0076 19.1166H10.5896C10.306 19.1166 10.0763 19.3465 10.0763 19.6301C10.0763 19.9137 10.306 20.1436 10.5896 20.1436H19.0076C19.2912 20.1436 19.5211 19.9137 19.5211 19.6301C19.5211 19.3465 19.2912 19.1166 19.0076 19.1166Z" fill="black"/>
<path d="M10.5896 22.5257H14.7987C15.0823 22.5257 15.312 22.2958 15.312 22.0122C15.312 21.7287 15.0823 21.4987 14.7987 21.4987H10.5896C10.306 21.4987 10.0763 21.7287 10.0763 22.0122C10.0763 22.2958 10.306 22.5257 10.5896 22.5257Z" fill="black"/>
<path d="M10.5896 26.3779H16.8463C17.1299 26.3779 17.3598 26.148 17.3598 25.8644C17.3598 25.5808 17.1299 25.3509 16.8463 25.3509H10.5896C10.306 25.3509 10.0763 25.5808 10.0763 25.8644C10.0763 26.148 10.306 26.3779 10.5896 26.3779Z" fill="black"/>
<path d="M10.5896 28.7598H19.0076C19.2912 28.7598 19.5211 28.5299 19.5211 28.2463C19.5211 27.963 19.2912 27.7331 19.0076 27.7331H10.5896C10.306 27.7331 10.0763 27.963 10.0763 28.2463C10.0763 28.5299 10.306 28.7598 10.5896 28.7598Z" fill="black"/>
<path d="M7.24422 12.4438C6.10054 12.4438 5.17021 13.3741 5.17021 14.5178C5.17021 15.6615 6.10054 16.5918 7.24422 16.5918C8.38791 16.5918 9.31824 15.6615 9.31824 14.5178C9.31824 13.3741 8.38791 12.4438 7.24422 12.4438ZM7.24422 15.5648C6.66691 15.5648 6.1972 15.0951 6.1972 14.5178C6.1972 13.9405 6.66691 13.4708 7.24422 13.4708C7.82154 13.4708 8.29124 13.9405 8.29124 14.5178C8.29124 15.0951 7.82154 15.5648 7.24422 15.5648Z" fill="black"/>
<path d="M7.24422 18.747C6.10054 18.747 5.17021 19.6776 5.17021 20.821C5.17021 21.9647 6.10054 22.895 7.24422 22.895C8.38791 22.895 9.31824 21.9647 9.31824 20.821C9.31824 19.6776 8.38791 18.747 7.24422 18.747ZM7.24422 21.8683C6.66691 21.8683 6.1972 21.3986 6.1972 20.8213C6.1972 20.2437 6.66691 19.774 7.24422 19.774C7.82154 19.774 8.29124 20.2437 8.29124 20.8213C8.29124 21.3986 7.82154 21.8683 7.24422 21.8683Z" fill="black"/>
<path d="M7.24422 24.9814C6.10054 24.9814 5.17021 25.9117 5.17021 27.0554C5.17021 28.1991 6.10054 29.1294 7.24422 29.1294C8.38791 29.1294 9.31824 28.1991 9.31824 27.0554C9.31824 25.9117 8.38791 24.9814 7.24422 24.9814ZM7.24422 28.1024C6.66691 28.1024 6.1972 27.6327 6.1972 27.0554C6.1972 26.4781 6.66691 26.0083 7.24422 26.0083C7.82154 26.0083 8.29124 26.4781 8.29124 27.0554C8.29124 27.6327 7.82154 28.1024 7.24422 28.1024Z" fill="black"/>
</svg>
