<svg width="35" height="35" viewBox="0 0 35 35" fill="none" xmlns="http://www.w3.org/2000/svg">
<g clip-path="url(#clip0_401_190)">
<path d="M0.647928 35H26.0565C26.3927 35 26.6304 34.6897 26.6304 34.3533V21.2185L34.7658 13.0825C35.0053 12.8471 35.0089 12.4622 34.7738 12.2224L31.5366 8.98094C31.2931 8.74346 30.9047 8.74316 30.661 8.98034L26.6304 12.9865V6.80592C26.637 6.64661 26.5787 6.49147 26.4693 6.37525L20.3188 0.197053C20.21 0.077573 20.0581 0.00653872 19.8967 0H0.647928C0.312075 0 0.076087 0.310292 0.076087 0.646442V34.3536C0.076087 34.6897 0.312075 35 0.647928 35ZM20.0804 21.8075L21.9558 23.683L19.1385 24.6248L20.0804 21.8075ZM23.0814 23.0867L20.6763 20.682L28.4003 12.9752L30.7882 15.363L23.0814 23.0867ZM31.1101 10.2717L33.4916 12.6533L31.6477 14.5014L29.2623 12.1154L31.1101 10.2717ZM20.5435 2.11587L24.5871 6.16304H20.5435V2.11587ZM1.29348 1.21739H19.3261V6.80592C19.319 6.95988 19.3763 7.10967 19.4851 7.21875C19.5936 7.32812 19.7428 7.38668 19.8967 7.38043H25.413V14.2012L19.3677 20.2501C19.3038 20.3125 19.2562 20.3895 19.2292 20.4745L18.3708 23.0543H5.22711C4.89096 23.0543 4.61842 23.3269 4.61842 23.663C4.61842 23.9992 4.89096 24.2717 5.22711 24.2717H17.9642L17.5975 25.3827C17.5244 25.5991 17.5814 25.8387 17.7443 25.9989C17.7871 26.0417 17.8356 26.0978 17.887 26.0978H5.22711C4.89096 26.0978 4.61842 26.3704 4.61842 26.7065C4.61842 27.0427 4.89096 27.3152 5.22711 27.3152H21.4339C21.7704 27.3152 22.0426 27.0427 22.0426 26.7065C22.0426 26.3704 21.7704 26.0978 21.4339 26.0978H18.49L23.2749 24.5116C23.359 24.4839 23.4351 24.4355 23.4957 24.3713L25.413 22.4385V33.7826H1.29348V1.21739Z" fill="black"/>
<path d="M21.4339 29.1413H5.22712C4.89097 29.1413 4.61842 29.4138 4.61842 29.75C4.61842 30.0861 4.89097 30.3587 5.22712 30.3587H21.4339C21.7704 30.3587 22.0426 30.0861 22.0426 29.75C22.0426 29.4138 21.7704 29.1413 21.4339 29.1413Z" fill="black"/>
<path d="M5.22712 21.2283H13.8252C14.1617 21.2283 14.4339 20.9557 14.4339 20.6196C14.4339 20.2834 14.1617 20.0109 13.8252 20.0109H5.22712C4.89097 20.0109 4.61842 20.2834 4.61842 20.6196C4.61842 20.9557 4.89097 21.2283 5.22712 21.2283Z" fill="black"/>
</g>
<defs>
<clipPath id="clip0_401_190">
<rect width="35" height="35" fill="white"/>
</clipPath>
</defs>
</svg>
