<svg width="20" height="26" viewBox="0 0 20 26" fill="none" xmlns="http://www.w3.org/2000/svg">
    <path fill-rule="evenodd" clip-rule="evenodd" d="M11.3187 1.2853C11.3187 0.575447 10.7283 0 10 0C9.2717 0 8.6813 0.575447 8.6813 1.2853V2.24927H7.94623C5.01201 2.24927 2.58348 4.47285 2.40032 7.32715L2.10888 11.8687C1.99777 13.6002 1.40133 15.2689 0.384528 16.6929C-0.534191 17.9795 0.283698 19.7566 1.88056 19.9433L6.37356 20.4688V21.85C6.37356 23.8021 7.99718 25.3846 10 25.3846C12.0028 25.3846 13.6264 23.8021 13.6264 21.85V20.4688L18.1194 19.9433C19.7163 19.7566 20.5342 17.9795 19.6155 16.6929C18.5987 15.2689 18.0022 13.6002 17.8911 11.8687L17.5997 7.32715C17.4165 4.47285 14.988 2.24927 12.0538 2.24927H11.3187V1.2853ZM7.94623 4.17722C6.05652 4.17722 4.49248 5.60926 4.37452 7.4475L4.08309 11.989C3.94938 14.0727 3.23166 16.0806 2.0081 17.7942C1.9417 17.8872 2.00081 18.0156 2.11624 18.0291L7.04511 18.6056C9.008 18.8352 10.992 18.8352 12.9549 18.6056L17.8838 18.0291C17.9992 18.0156 18.0583 17.8872 17.9919 17.7942C16.7683 16.0806 16.0506 14.0727 15.9169 11.989L15.6255 7.4475C15.5075 5.60926 13.9435 4.17722 12.0538 4.17722H7.94623ZM10 23.4567C9.08963 23.4567 8.35162 22.7374 8.35162 21.85V20.8861H11.6484V21.85C11.6484 22.7374 10.9104 23.4567 10 23.4567Z" fill="black"/>
    <path d="M4.37452 7.4475C4.49248 5.60926 6.05652 4.17722 7.94623 4.17722H12.0538C13.9435 4.17722 15.5075 5.60926 15.6255 7.4475L15.9169 11.989C16.0506 14.0727 16.7683 16.0806 17.9919 17.7942C18.0583 17.8872 17.9992 18.0156 17.8838 18.0291L12.9549 18.6056C10.992 18.8352 9.008 18.8352 7.04511 18.6056L2.11624 18.0291C2.00081 18.0156 1.9417 17.8872 2.0081 17.7942C3.23166 16.0806 3.94938 14.0727 4.08309 11.989L4.37452 7.4475Z" fill="#FEFEFE"/>
</svg>
