<svg width="5" height="22" viewBox="0 0 5 22" fill="none" xmlns="http://www.w3.org/2000/svg">
    <path d="M2.2 0.75C3.00081 0.75 3.65 1.39919 3.65 2.2C3.65 3.00081 3.00081 3.65 2.2 3.65C1.39919 3.65 0.750001 3.00081 0.750001 2.2C0.750001 1.39919 1.39919 0.75 2.2 0.75ZM2.2 9.55C3.00081 9.55 3.65 10.1992 3.65 11C3.65 11.8008 3.00081 12.45 2.2 12.45C1.39919 12.45 0.75 11.8008 0.75 11C0.75 10.1992 1.39919 9.55 2.2 9.55ZM2.2 18.35C3.00081 18.35 3.65 18.9992 3.65 19.8C3.65 20.6008 3.00081 21.25 2.2 21.25C1.39919 21.25 0.75 20.6008 0.75 19.8C0.75 18.9992 1.39919 18.35 2.2 18.35Z" fill="black" stroke="black" stroke-width="1.5"/>
</svg>
