<svg width="40" height="22" viewBox="0 0 40 22" fill="none" xmlns="http://www.w3.org/2000/svg">
    <path d="M39.3019 21.1218C39.3169 21.1188 39.3316 21.1148 39.3464 21.111C39.359 21.1077 39.3717 21.1051 39.3841 21.1012C39.3986 21.0969 39.4127 21.0914 39.4268 21.0863C39.4393 21.0818 39.4519 21.0778 39.4643 21.0726C39.4776 21.067 39.4904 21.0605 39.5034 21.0544C39.516 21.0484 39.5288 21.0428 39.5412 21.0361C39.5536 21.0295 39.5652 21.022 39.5773 21.0148C39.5896 21.0074 39.6021 21.0005 39.6142 20.9924C39.627 20.9839 39.6389 20.9744 39.6513 20.9651C39.6617 20.9574 39.6723 20.9501 39.6825 20.9417C39.7013 20.9264 39.7191 20.9099 39.7364 20.8931C39.7395 20.89 39.7429 20.8875 39.746 20.8844C39.7493 20.8811 39.752 20.8776 39.7552 20.8742C39.7718 20.8571 39.788 20.8395 39.8033 20.821C39.8122 20.8101 39.8199 20.7988 39.8283 20.7876C39.8368 20.776 39.8458 20.7648 39.8538 20.7528C39.8624 20.7399 39.8699 20.7266 39.8778 20.7134C39.8844 20.7023 39.8914 20.6915 39.8975 20.68C39.9047 20.6667 39.9107 20.6529 39.9171 20.6394C39.9228 20.6274 39.9288 20.6155 39.934 20.6031C39.9395 20.5898 39.9439 20.5763 39.9488 20.5627C39.9535 20.5495 39.9586 20.5365 39.9627 20.5231C39.9668 20.5094 39.9698 20.4955 39.9733 20.4816C39.9767 20.468 39.9806 20.4546 39.9832 20.4408C39.9865 20.4245 39.9885 20.4081 39.9908 20.3917C39.9924 20.3801 39.9946 20.3686 39.9957 20.357C39.9986 20.3282 40.0001 20.2994 40.0001 20.2704V1.72884C40.0001 1.24965 39.6119 0.861374 39.1327 0.861374H11.8074C11.7998 0.861374 11.7924 0.862299 11.7847 0.86253C11.7682 0.862993 11.7518 0.863687 11.7353 0.865075C11.7223 0.866116 11.7093 0.86762 11.6964 0.869355C11.6816 0.871205 11.6669 0.873403 11.6522 0.876063C11.6384 0.878492 11.6248 0.881383 11.6112 0.884506C11.5975 0.887745 11.5837 0.891215 11.5701 0.895147C11.5565 0.898964 11.5432 0.903127 11.53 0.907523C11.5165 0.912149 11.503 0.917008 11.4897 0.922328C11.4771 0.927302 11.4647 0.93239 11.4524 0.937942C11.4388 0.944072 11.4253 0.950665 11.4118 0.957489C11.4004 0.963388 11.3892 0.969402 11.3781 0.975764C11.3647 0.983398 11.3515 0.991494 11.3384 0.999822C11.3276 1.00676 11.3171 1.01393 11.3067 1.02122C11.2944 1.02989 11.2823 1.03892 11.2704 1.0484C11.2595 1.05707 11.2489 1.06598 11.2383 1.07512C11.2279 1.08426 11.2176 1.09339 11.2076 1.10311C11.1961 1.1141 11.1851 1.12555 11.1743 1.13711C11.1688 1.1429 11.1631 1.14799 11.1578 1.15388C11.1547 1.15735 11.1523 1.16117 11.1493 1.16464C11.1384 1.17725 11.1282 1.19043 11.1181 1.20373C11.1107 1.21345 11.103 1.22317 11.0961 1.23311C11.0871 1.24607 11.0787 1.25937 11.0704 1.27278C11.0636 1.28377 11.0565 1.29464 11.0503 1.30586C11.043 1.31882 11.0366 1.33212 11.03 1.34542C11.024 1.35757 11.0178 1.36971 11.0123 1.38209C11.0067 1.39516 11.0017 1.40869 10.9967 1.42199C10.9918 1.43506 10.9867 1.44801 10.9824 1.4612C10.9781 1.4745 10.9746 1.48803 10.9709 1.50156C10.9672 1.51544 10.9633 1.52921 10.9602 1.5432C10.9573 1.55627 10.9553 1.56957 10.953 1.58276C10.9505 1.5978 10.9479 1.61283 10.9461 1.62787C10.9446 1.64036 10.9439 1.65308 10.9429 1.66581C10.9418 1.682 10.9407 1.69819 10.9405 1.7145C10.9404 1.71924 10.9398 1.72387 10.9398 1.72861V7.07823C10.9398 7.55742 11.3281 7.94569 11.8073 7.94569C12.2865 7.94569 12.6748 7.55742 12.6748 7.07823V3.6552L20.3872 10.4836C20.347 10.5119 20.3083 10.5432 20.2722 10.5792L12.6746 18.1767V12.476C12.6746 11.9968 12.2864 11.6085 11.8072 11.6085C11.328 11.6085 10.9397 11.9968 10.9397 12.476V13.5359H6.45779C5.9786 13.5359 5.59032 13.9242 5.59032 14.4034C5.59032 14.8825 5.9786 15.2708 6.45779 15.2708H10.9397V20.271C10.9397 20.7502 11.328 21.1385 11.8072 21.1385H39.1324C39.161 21.1385 39.1896 21.137 39.218 21.1342C39.2313 21.1329 39.2442 21.1304 39.2572 21.1285C39.2723 21.1265 39.2871 21.1247 39.3019 21.1218ZM38.2651 18.1768L30.6674 10.5793C30.6626 10.5745 30.6574 10.5704 30.6524 10.5658L36.3642 5.71989C36.7294 5.40991 36.7743 4.8626 36.4643 4.49722C36.1546 4.13207 35.6073 4.08697 35.2417 4.39706L25.482 12.6773L14.0957 2.59643H38.2651V18.1768ZM21.4991 11.8063C21.561 11.7444 21.6112 11.6755 21.6504 11.6021L24.8948 14.4746C25.0589 14.6198 25.2643 14.6926 25.4699 14.6926C25.6696 14.6926 25.8691 14.624 26.0312 14.4866L29.3377 11.6814C29.3677 11.7253 29.4016 11.7673 29.4406 11.8063L37.0381 19.4038H13.9016L21.4991 11.8063Z" fill="black"/>
    <path d="M0.867468 10.7408H15.5181C15.9973 10.7408 16.3856 10.3525 16.3856 9.87333C16.3856 9.39414 15.9973 9.00586 15.5181 9.00586H0.867468C0.388279 9.00586 0 9.39414 0 9.87333C0 10.3525 0.388279 10.7408 0.867468 10.7408Z" fill="black"/>
    <path d="M2.38552 5.96034H8.96382C9.44301 5.96034 9.83129 5.57206 9.83129 5.09287C9.83129 4.61368 9.44301 4.2254 8.96382 4.2254H2.38552C1.90633 4.2254 1.51805 4.61368 1.51805 5.09287C1.51805 5.57206 1.90633 5.96034 2.38552 5.96034Z" fill="black"/>
    <path d="M7.2289 17.1987H0.867468C0.388279 17.1987 0 17.587 0 18.0662C0 18.5453 0.388279 18.9336 0.867468 18.9336H7.2289C7.70809 18.9336 8.09637 18.5453 8.09637 18.0662C8.09637 17.587 7.70809 17.1987 7.2289 17.1987Z" fill="black"/>
</svg>
