<svg width="22" height="23" viewBox="0 0 22 23" fill="none" xmlns="http://www.w3.org/2000/svg">
    <path fill-rule="evenodd" clip-rule="evenodd" d="M7.30031 1.93556C5.76877 1.76438 4.18338 1.76438 2.65184 1.93556C2.27969 1.97715 1.98621 2.27183 1.94435 2.62972C1.76145 4.19346 1.76145 5.77319 1.94435 7.33693C1.98621 7.69482 2.27969 7.9895 2.65184 8.03109C4.18338 8.20226 5.76877 8.20226 7.30031 8.03109C7.67246 7.9895 7.96594 7.69482 8.0078 7.33693C8.19069 5.77319 8.19069 4.19346 8.0078 2.62972C7.96594 2.27183 7.67246 1.97715 7.30031 1.93556ZM2.45111 0.139562C4.11606 -0.0465206 5.83609 -0.0465206 7.50104 0.139562C8.69479 0.272981 9.66156 1.2127 9.80274 2.41978C10.0019 4.12301 10.0019 5.84364 9.80274 7.54686C9.66156 8.75395 8.69479 9.69367 7.50104 9.82709C5.83609 10.0132 4.11606 10.0132 2.45111 9.82709C1.25736 9.69367 0.290585 8.75395 0.149405 7.54686C-0.0498018 5.84364 -0.0498018 4.12301 0.149405 2.41978C0.290585 1.2127 1.25736 0.272981 2.45111 0.139562Z" fill="black"/>
    <path fill-rule="evenodd" clip-rule="evenodd" d="M7.30031 13.9834C5.76877 13.8122 4.18338 13.8122 2.65184 13.9834C2.27969 14.025 1.98621 14.3197 1.94435 14.6776C1.76145 16.2413 1.76145 17.821 1.94435 19.3848C1.98621 19.7427 2.27969 20.0374 2.65184 20.0789C4.18338 20.2501 5.76877 20.2501 7.30031 20.0789C7.67246 20.0374 7.96594 19.7427 8.0078 19.3848C8.19069 17.821 8.19069 16.2413 8.0078 14.6776C7.96594 14.3197 7.67246 14.025 7.30031 13.9834ZM2.45111 12.1874C4.11606 12.0013 5.83609 12.0013 7.50104 12.1874C8.69479 12.3208 9.66156 13.2606 9.80274 14.4676C10.0019 16.1709 10.0019 17.8915 9.80274 19.5947C9.66156 20.8018 8.69479 21.7415 7.50104 21.8749C5.83609 22.061 4.11606 22.061 2.45111 21.8749C1.25736 21.7415 0.290585 20.8018 0.149405 19.5947C-0.0498018 17.8915 -0.0498018 16.1709 0.149405 14.4676C0.290585 13.2606 1.25736 12.3208 2.45111 12.1874Z" fill="black"/>
    <path fill-rule="evenodd" clip-rule="evenodd" d="M19.3482 1.93556C17.8166 1.76438 16.2312 1.76438 14.6997 1.93556C14.3275 1.97715 14.0341 2.27183 13.9922 2.62972C13.8093 4.19346 13.8093 5.77319 13.9922 7.33693C14.0341 7.69482 14.3275 7.9895 14.6997 8.03109C16.2312 8.20226 17.8166 8.20226 19.3482 8.03109C19.7203 7.9895 20.0138 7.69482 20.0557 7.33693C20.2385 5.77319 20.2385 4.19346 20.0557 2.62972C20.0138 2.27183 19.7203 1.97715 19.3482 1.93556ZM14.499 0.139562C16.1639 -0.0465206 17.8839 -0.0465206 19.5489 0.139562C20.7426 0.272981 21.7094 1.2127 21.8506 2.41978C22.0498 4.12301 22.0498 5.84364 21.8506 7.54686C21.7094 8.75395 20.7426 9.69367 19.5489 9.82709C17.8839 10.0132 16.1639 10.0132 14.499 9.82709C13.3052 9.69367 12.3384 8.75395 12.1973 7.54686C11.9981 5.84364 11.9981 4.12301 12.1973 2.41978C12.3384 1.2127 13.3052 0.272981 14.499 0.139562Z" fill="black"/>
    <path fill-rule="evenodd" clip-rule="evenodd" d="M19.3482 13.9834C17.8166 13.8122 16.2312 13.8122 14.6997 13.9834C14.3275 14.025 14.0341 14.3197 13.9922 14.6776C13.8093 16.2413 13.8093 17.821 13.9922 19.3848C14.0341 19.7427 14.3275 20.0374 14.6997 20.0789C16.2312 20.2501 17.8166 20.2501 19.3482 20.0789C19.7203 20.0374 20.0138 19.7427 20.0557 19.3848C20.2385 17.821 20.2385 16.2413 20.0557 14.6776C20.0138 14.3197 19.7203 14.025 19.3482 13.9834ZM14.499 12.1874C16.1639 12.0013 17.8839 12.0013 19.5489 12.1874C20.7426 12.3208 21.7094 13.2606 21.8506 14.4676C22.0498 16.1709 22.0498 17.8915 21.8506 19.5947C21.7094 20.8018 20.7426 21.7415 19.5489 21.8749C17.8839 22.061 16.1639 22.061 14.499 21.8749C13.3052 21.7415 12.3384 20.8018 12.1973 19.5947C11.9981 17.8915 11.9981 16.1709 12.1973 14.4676C12.3384 13.2606 13.3052 12.3208 14.499 12.1874Z" fill="black"/>
</svg>
