<svg width="10" height="10" viewBox="0 0 10 10" fill="none" xmlns="http://www.w3.org/2000/svg">
    <path d="M4.71337 0.927545C4.80049 0.645641 5.19951 0.64564 5.28663 0.927544L6.11501 3.60823C6.15385 3.73394 6.27006 3.81966 6.40163 3.81966H9.11311C9.40007 3.81966 9.52326 4.18385 9.29523 4.35806L7.07612 6.05331C6.97621 6.12963 6.93449 6.26015 6.97161 6.38027L7.81306 9.10325C7.89929 9.38231 7.57642 9.60753 7.34431 9.43022L5.18212 7.77845C5.0746 7.69631 4.9254 7.69631 4.81788 7.77845L2.65569 9.43022C2.42358 9.60753 2.10071 9.38231 2.18694 9.10325L3.02839 6.38027C3.06551 6.26015 3.02379 6.12963 2.92388 6.05331L0.70477 4.35806C0.476736 4.18385 0.599928 3.81966 0.886888 3.81966H3.59837C3.72993 3.81966 3.84615 3.73394 3.88499 3.60823L4.71337 0.927545Z" fill="#7793B0"/>
</svg>
