<svg width="22" height="24" viewBox="0 0 22 24" fill="none" xmlns="http://www.w3.org/2000/svg">
    <path d="M4.97674 23.9581C4.73645 23.9581 4.49784 23.8726 4.29419 23.7048C3.91485 23.3914 3.73764 22.8527 3.84089 22.333L5.25184 15.2483L0.466784 10.4649C0.11505 10.1149 -0.0193184 9.56064 0.12509 9.05346C0.269498 8.54724 0.662396 8.18884 1.12758 8.13982L7.45879 7.48463L9.96193 0.807401C10.1465 0.316819 10.5668 0 11.0339 0C11.5009 0 11.9212 0.316819 12.1058 0.806257L14.6089 7.48463L20.9391 8.13982C21.4053 8.1877 21.7982 8.54724 21.9426 9.05346C22.087 9.55969 21.9535 10.1149 21.6018 10.4649L16.8167 15.2474L18.2277 22.3318C18.3311 22.8527 18.1537 23.3914 17.7745 23.7038C17.3962 24.0162 16.8917 24.0403 16.4933 23.7673L11.0339 20.0485L5.57446 23.7694C5.38989 23.8944 5.18424 23.9581 4.97674 23.9581ZM11.0339 18.4464C11.2414 18.4464 11.4468 18.51 11.6316 18.6349L16.7839 22.1476L15.4523 15.4608C15.3572 14.9849 15.499 14.488 15.8216 14.1661L20.3398 9.64933L14.3621 9.03057C13.9317 8.98575 13.5616 8.67733 13.3934 8.22527L11.0339 1.92399L8.67145 8.22622C8.50513 8.67523 8.13498 8.98365 7.70561 9.02848L1.72714 9.64724L6.24513 14.164C6.56875 14.4869 6.71031 14.9828 6.61443 15.4598L5.2838 22.1464L10.4361 18.6349C10.6207 18.51 10.8264 18.4464 11.0339 18.4464ZM7.41043 7.61376C7.41043 7.61376 7.41043 7.6149 7.40943 7.61586L7.41043 7.61376ZM14.6554 7.61071L14.6565 7.61281C14.6565 7.61166 14.6565 7.61166 14.6554 7.61071Z" fill="black"/>
</svg>
